Coordinates
version=1
nRows=10
nColumns=34
inDegrees=yes

Units are S.I. units (second, meters, Newtons, ...)
If the header above contains a line with 'inDegrees', this indicates whether rotational values are in degrees (yes) or radians (no).

endheader
time	pelvis_tilt	pelvis_list	pelvis_rotation	pelvis_tx	pelvis_ty	pelvis_tz	hip_flexion_r	hip_adduction_r	hip_rotation_r	knee_angle_r	ankle_angle_r	subtalar_angle_r	mtp_angle_r	hip_flexion_l	hip_adduction_l	hip_rotation_l	knee_angle_l	ankle_angle_l	subtalar_angle_l	mtp_angle_l	lumbar_extension	lumbar_bending	lumbar_rotation	arm_flex_r	arm_add_r	arm_rot_r	elbow_flex_r	pro_sup_r	arm_flex_l	arm_add_l	arm_rot_l	elbow_flex_l	pro_sup_l
      1.25000000	    -13.09999522	     -0.09135515	     -1.01689033	      0.00832497	      1.25650177	     -0.07768258	      8.17423618	      1.72434519	     -1.78064140	      0.00000000	      0.27430819	     -5.23035226	      0.00000000	      7.70418094	     -3.01273599	     -4.08265676	      0.00000000	      3.38394813	      3.39127956	      0.00000000	     -0.09227027	      1.45234210	      1.24816179	    -10.13934437	    -11.47689963	      2.09457751	     40.49875438	     64.82565498	      9.69928458	     -9.96027522	     26.74587814	     42.53557120	     67.41991248
      1.26666670	    -13.23690289	     -0.09257443	     -1.30983434	      0.00382685	      1.25592313	     -0.07714062	      8.52319942	      1.81068989	     -1.83369675	      0.00000000	      0.31122157	     -5.24033171	      0.00000000	      7.85669615	     -3.06880792	     -4.08421410	      0.00000000	      3.41049047	      3.37778243	      0.00000000	     -0.48197776	      1.55695078	      1.25057392	     -9.80114348	    -11.11223217	      2.21347653	     40.60025689	     64.85449028	      9.77326726	     -9.73995126	     26.81768500	     42.47282637	     67.45621456
      1.28333330	    -13.36047567	     -0.13634483	     -1.69142730	      0.00415415	      1.25559288	     -0.07670200	      8.81507348	      1.95054511	     -1.69764548	      0.00000000	      0.16793804	     -5.09205412	      0.00000000	      7.98548528	     -3.18508716	     -4.13644267	      0.00000000	      3.45492212	      3.36279388	      0.00000000	     -0.81176148	      1.66440563	      1.16755648	     -9.39313449	    -10.80436301	      2.36395601	     40.66432258	     64.92574320	      9.89728280	     -9.63596888	     26.85390385	     42.16135612	     67.55905800
      1.30000000	    -13.42386361	     -0.11399520	     -1.96881016	      0.00488074	      1.25610565	     -0.07649185	      8.96720608	      1.98864126	     -1.71668987	      0.00000000	      0.18507043	     -5.09486571	      0.00000000	      8.09514091	     -3.20557288	     -4.08813558	      0.00000000	      3.47410006	      3.38634542	      0.00000000	     -1.12540378	      1.70849988	      1.15188781	     -9.45632762	    -10.64043364	      2.41987012	     40.63311954	     64.94025856	      9.69767684	     -9.57592194	     26.89608574	     42.03850735	     67.58006817
      1.31666670	    -13.51174259	     -0.13362264	     -2.37641308	      0.00677051	      1.25595348	     -0.07530296	      9.11451608	      2.10455668	     -1.41625511	      0.00000000	      0.19198689	     -4.91708408	      0.00000000	      8.09745979	     -3.32944220	     -4.61213284	      0.00000000	      3.62532446	      3.71041499	      0.00000000	     -1.18653339	      1.81794192	      1.14081842	     -9.01134981	    -10.37830057	      3.10936765	     39.98482904	     65.67440278	      9.62205873	     -9.01283397	     26.32722947	     39.42425334	     68.65568097
      1.33333330	    -13.62121694	     -0.10588238	     -2.57506470	      0.00483810	      1.26097773	     -0.07514104	      9.24184952	      2.13658127	     -1.50239029	      0.00000000	      0.11097448	     -4.91312017	      0.00000000	      8.18226752	     -3.35530132	     -4.59846427	      0.00000000	      3.63143862	      3.69766629	      0.00000000	     -1.54964395	      1.80148804	      1.24549335	     -9.08991142	    -10.25444145	      3.14640571	     39.95483792	     65.69274089	      9.22293453	     -9.05589177	     26.36962459	     39.27320180	     68.68596853
      1.35000000	    -13.65039235	     -0.06788736	     -3.03171600	      0.00559865	      1.25687246	     -0.07490028	      9.29264412	      2.18963328	     -1.47722763	      0.00000000	     -0.53687875	     -4.64312917	      0.00000000	      8.10305203	     -3.39982109	     -5.07938711	      0.00000000	      3.64737129	      3.33688776	      0.00000000	     -1.82013069	      1.81294749	      1.33548464	     -9.01680616	    -10.07223312	      3.20585416	     39.96355544	     65.85069459	      8.51587453	     -9.15679252	     26.33764503	     38.70487068	     68.93391142
      1.36666670	    -13.75133952	     -0.04825600	     -3.34947219	      0.00607619	      1.25526071	     -0.07407883	      9.36893794	      2.25448526	     -1.27909691	      0.00000000	     -0.84123734	     -5.02719389	      0.00000000	      8.09710001	     -3.43069052	     -5.12627977	      0.00000000	      3.34214640	      2.88865855	      0.00000000	     -1.94671541	      1.85043396	      1.29422988	     -8.96711432	    -10.02627016	      3.64079494	     39.69325852	     67.21708264	      8.13083219	     -8.67939372	     25.22596673	     36.29931574	     70.88072502
      1.38333330	    -13.85479820	     -0.04370039	     -3.64204387	      0.00489695	      1.25434005	     -0.07370134	      9.47313742	      2.33089738	     -1.27614583	      0.00000000	     -1.00672411	     -4.90002665	      0.00000000	      8.13128295	     -3.48305031	     -5.25777086	      0.00000000	      3.49716981	      2.70421684	      0.00000000	     -2.27193299	      1.87331579	      1.52787031	     -9.05000358	    -10.00028723	      3.64837782	     39.69118297	     67.32222181	      7.32960641	     -8.87334046	     25.25995136	     36.06094906	     71.04895690
      1.40000000	    -13.99205125	     -0.04832138	     -3.67904027	      0.00429409	      1.25516854	     -0.07371555	      9.59321434	      2.36736751	     -1.29465775	      0.00000000	     -1.03489426	     -4.88665684	      0.00000000	      8.24560406	     -3.52261407	     -5.25252784	      0.00000000	      3.49657945	      2.67958128	      0.00000000	     -2.71730127	      1.79135647	      1.69589568	     -9.16849657	    -10.00692928	      3.65730822	     39.64972920	     67.34481709	      6.74423062	     -9.00111685	     25.29791612	     35.83304645	     71.08163402
